<?xml version="1.0" encoding="utf-8"?>
<!-- Generated by IcoMoon.io -->
<!DOCTYPE svg PUBLIC "-//W3C//DTD SVG 1.1//EN" "http://www.w3.org/Graphics/SVG/1.1/DTD/svg11.dtd">
<svg version="1.1" xmlns="http://www.w3.org/2000/svg" xmlns:xlink="http://www.w3.org/1999/xlink" width="48" height="48" viewBox="0 0 48 48">
<path fill="#ffffff" d="M43.313 43.249h-38.625c-0.105-6.107 2.758-12.513 11.128-16.944-1.688-1.781-3.761-4.907-3.761-9.519 0-6.636 5.399-12.035 12.035-12.035s12.035 5.399 12.035 12.035c0 4.664-2.124 7.804-3.862 9.592 8.011 4.083 11.157 10.666 11.050 16.871zM8.821 39.488h30.354c-1.807-8.293-10.713-9.902-11.28-12.65-0.624-3.030 4.469-3.387 4.469-10.052 0-4.562-3.712-8.274-8.274-8.274s-8.274 3.712-8.274 8.274c0 6.573 4.942 6.995 4.336 9.965-0.575 2.821-9.546 4.352-11.33 12.737z"></path>
</svg>
