<?xml version="1.0" encoding="utf-8"?>
<!-- Generated by IcoMoon.io -->
<!DOCTYPE svg PUBLIC "-//W3C//DTD SVG 1.1//EN" "http://www.w3.org/Graphics/SVG/1.1/DTD/svg11.dtd">
<svg version="1.1" xmlns="http://www.w3.org/2000/svg" xmlns:xlink="http://www.w3.org/1999/xlink" width="48" height="48" viewBox="0 0 48 48">
<path fill="#ffffff" d="M35.018 7.656c-0.852 0-1.67-0.337-2.275-0.938l-2.040-2.031h-13.406l-2.041 2.030c-0.604 0.601-1.422 0.938-2.275 0.938h-5.528v35.656h33.094v-35.656h-5.529zM36.75 39.516h-25.594v-28.125h5.844l2.336 2.344h9.492l2.367-2.344h5.555v28.125zM14.332 21.456l0.844-0.78c0.987 0.478 1.613 0.841 2.723 1.632 2.086-2.367 3.464-3.568 6.025-5.162l0.275 0.632c-2.113 1.844-3.66 3.897-5.888 7.892-1.374-1.618-2.291-2.65-3.979-4.214zM14.332 31.487l0.844-0.78c0.987 0.478 1.613 0.841 2.723 1.632 2.086-2.367 3.464-3.568 6.025-5.162l0.275 0.632c-2.113 1.843-3.66 3.897-5.888 7.892-1.374-1.618-2.291-2.65-3.979-4.214zM33.523 20.672h-6.563v-1.875h6.563v1.875zM33.523 22.313h-6.563v1.875h6.563v-1.875zM33.523 31.609h-6.563v-1.875h6.563v1.875zM33.523 33.25h-6.563v1.875h6.563v-1.875z"></path>
</svg>
