<?xml version="1.0" encoding="utf-8"?>
<!-- Generated by IcoMoon.io -->
<!DOCTYPE svg PUBLIC "-//W3C//DTD SVG 1.1//EN" "http://www.w3.org/Graphics/SVG/1.1/DTD/svg11.dtd">
<svg version="1.1" xmlns="http://www.w3.org/2000/svg" xmlns:xlink="http://www.w3.org/1999/xlink" width="48" height="48" viewBox="0 0 48 48">
<path fill="#ffffff" d="M28.187 19.156l-2.572-2.569 10.877-10.877 6.807 6.807-10.877 10.877-1.35-1.35 9.526-9.527-4.106-4.106-4.649 4.649 1.216 1.216-0.675 0.675-1.216-1.216-0.733 0.733 1.216 1.216-0.675 0.675-1.216-1.216-0.709 0.709 1.22 1.22-0.675 0.675-1.22-1.22-0.733 0.733 1.22 1.22-0.675 0.675zM38.064 12.542c0-0.89-0.722-1.611-1.611-1.611s-1.611 0.721-1.611 1.611c0 0.89 0.722 1.611 1.611 1.611s1.611-0.721 1.611-1.611zM31.294 38.877l6.467-6.467-21.133-21.133-6.467 6.467 21.133 21.133zM14.795 9.444l-3.627-3.627-6.467 6.467 3.627 3.627 6.467-6.467zM33.132 40.707l8.092 1.493-1.632-7.953-6.459 6.459zM13.525 39.59l-4.106-4.106 1.084-1.084 1.221 1.221 0.675-0.675-1.221-1.221 0.738-0.738 1.22 1.22 0.675-0.675-1.22-1.22 0.733-0.733 1.22 1.22 0.675-0.675-1.22-1.22 0.709-0.709 1.216 1.216 0.675-0.675-1.216-1.216 0.733-0.733 1.216 1.216 0.675-0.675-2.562-2.571-8.729 8.729 6.807 6.807 8.729-8.728-1.35-1.35-7.378 7.378z"></path>
</svg>
