<?xml version="1.0" encoding="utf-8"?>
<!-- Generated by IcoMoon.io -->
<!DOCTYPE svg PUBLIC "-//W3C//DTD SVG 1.1//EN" "http://www.w3.org/Graphics/SVG/1.1/DTD/svg11.dtd">
<svg version="1.1" xmlns="http://www.w3.org/2000/svg" xmlns:xlink="http://www.w3.org/1999/xlink" width="48" height="48" viewBox="0 0 48 48">
<path fill="#ffffff" d="M35.018 7.656c-0.852 0-1.67-0.337-2.275-0.938l-2.040-2.031h-13.406l-2.041 2.030c-0.604 0.601-1.422 0.938-2.275 0.938h-5.528v35.656h33.094v-35.656h-5.529zM36.75 39.516h-25.594v-28.125h5.844l2.336 2.344h9.492l2.367-2.344h5.555v28.125zM15.269 26.009l1.533-1.418c1.794 0.868 2.931 1.528 4.947 2.965 3.79-4.301 6.294-6.483 10.949-9.379l0.499 1.148c-3.839 3.35-6.65 7.081-10.699 14.342-2.497-2.941-4.164-4.815-7.23-7.658z"></path>
</svg>
