<?xml version="1.0" encoding="utf-8"?>
<!-- Generated by IcoMoon.io -->
<!DOCTYPE svg PUBLIC "-//W3C//DTD SVG 1.1//EN" "http://www.w3.org/Graphics/SVG/1.1/DTD/svg11.dtd">
<svg version="1.1" xmlns="http://www.w3.org/2000/svg" xmlns:xlink="http://www.w3.org/1999/xlink" width="48" height="48" viewBox="0 0 48 48">
<path fill="#ffffff" d="M27.964 18.489l8.060-8.060c1.667-1.667 4.371-1.667 6.038 0s1.667 4.37 0 6.038l-8.060 8.060-1.478-1.478 7.69-7.69c0.24-0.24 0.24-0.63 0-0.87s-0.63-0.24-0.87 0l-7.69 7.69-1.265-1.266 7.69-7.69c0.24-0.24 0.24-0.63 0-0.87s-0.63-0.24-0.87 0l-7.69 7.69-1.554-1.554zM23.493 31.025l-5.924 5.924c-0.326 0.326-0.601 0.7-0.815 1.109l-0.432 0.828-2.997 1.531-1.186-1.186 1.466-3.062 0.828-0.432c0.409-0.213 0.783-0.488 1.109-0.814l5.924-5.924 2.027 2.027zM11.676 25.554l-6.989-6.989 2.186-2.186c0 0 1.756 1.183 3.19-0.251 1.559-1.559 1.095-3.884 4.552-6.487 6.093-4.588 15.268-0.072 15.268-0.072-7.292 0.729-10.404 3.989-7.389 7.004l1.017 1.017-4.882 4.882c0 0-0.239-0.239-0.98-0.98-1.326-1.326-2.593-1.613-3.608-0.597-1.123 1.123-0.179 2.473-0.179 2.473l-2.186 2.186zM24.675 18.754l-4.876 4.876 15.743 15.743c1.347 1.347 3.529 1.347 4.876-0s1.346-3.529 0-4.876l-15.743-15.743z"></path>
</svg>
