<?xml version="1.0" encoding="utf-8"?>
<!-- Generated by IcoMoon.io -->
<!DOCTYPE svg PUBLIC "-//W3C//DTD SVG 1.1//EN" "http://www.w3.org/Graphics/SVG/1.1/DTD/svg11.dtd">
<svg version="1.1" xmlns="http://www.w3.org/2000/svg" xmlns:xlink="http://www.w3.org/1999/xlink" width="48" height="48" viewBox="0 0 48 48">
<path fill="#ffffff" d="M35.051 22.49v7.076c0 5.188-7.111 12.715-12.871 12.715h-17.493v-34.814h25.147l-1.804 1.804c-0.454 0.454-0.795 0.991-1.009 1.576h-18.954v28.054c10 0 11.352 0 14.061 0 4.974 0 2.958-6.43 2.958-6.43s6.585 2.137 6.585-3.197c0-0.591 0-1.816 0-3.367 0.009-0.009 0.019-0.018 0.028-0.027l3.352-3.389zM18.603 26.644h-7.487v2.379h7.487v-2.379zM42.367 11.786c1.26-1.26 1.26-3.303 0-4.563s-3.303-1.26-4.563 0l-8.012 8.012 4.563 4.563 8.012-8.012zM32.873 20.721l-3.166 3.166c-1.831 1.831-3.591 2.752-6.042 3.59l-1.552-1.552c0.837-2.451 1.758-4.211 3.59-6.042l3.166-3.166 4.004 4.004zM21.617 28.842c-0.24 0.24-0.629 0.24-0.869 0s-0.24-0.629 0-0.869l0.9-0.9 0.869 0.869-0.9 0.9zM30.007 13.357c-0.583-0.583-0.568-1.512 0.015-2.095l5.097-5.097c0.583-0.583 1.513-0.599 2.095-0.016l-7.208 7.208z"></path>
</svg>
